<svg xmlns="http://www.w3.org/2000/svg" viewBox="0 0 503 204" role="img" aria-labelledby="title desc">
  <title id="title">Builder Lead Converter logo</title>
  <desc id="desc">Builder Lead Converter, your perfect sales assistant.</desc>
  <rect width="503" height="204" fill="#fff"/>
  <g fill="none" stroke-linejoin="miter" stroke-miterlimit="10">
    <path d="M31 58V146h57V70L41 103" stroke="#1f74b7" stroke-width="9"/>
    <path d="M32 30v25" stroke="#1f74b7" stroke-width="9"/>
    <path d="M9 80 101 16l71 51v24" stroke="#28864b" stroke-width="9"/>
    <path d="M97 83v63h74" stroke="#454545" stroke-width="9"/>
    <path d="M113 66v80" stroke="#454545" stroke-width="9"/>
  </g>
  <g fill="#1f74b7">
    <path transform="translate(192.00 100.00) scale(0.02588 -0.02588)" d="M84 1619H504Q703 1619 805.5 1588.0Q908 1557 971.0 1462.5Q1034 1368 1034 1158Q1034 1016 989.5 960.0Q945 904 814 874Q960 841 1012.0 764.5Q1064 688 1064 530V380Q1064 216 1026.5 137.0Q989 58 907.0 29.0Q825 0 571 0H84ZM505 1342V982Q532 983 547 983Q609 983 626.0 1013.5Q643 1044 643 1188Q643 1264 629.0 1294.5Q615 1325 592.5 1333.0Q570 1341 505 1342ZM505 730V277Q594 280 618.5 305.0Q643 330 643 428V579Q643 683 621.0 705.0Q599 727 505 730Z"/>
    <path transform="translate(221.27 100.00) scale(0.02588 -0.02588)" d="M1041 1619V537Q1041 353 1029.0 278.5Q1017 204 958.0 125.5Q899 47 802.5 6.5Q706 -34 575 -34Q430 -34 319.0 14.0Q208 62 153.0 139.0Q98 216 88.0 301.5Q78 387 78 661V1619H499V405Q499 299 510.5 269.5Q522 240 557 240Q597 240 608.5 272.5Q620 305 620 426V1619Z"/>
    <path transform="translate(250.25 100.00) scale(0.02588 -0.02588)" d="M505 1619V0H84V1619Z"/>
    <path transform="translate(265.52 100.00) scale(0.02588 -0.02588)" d="M505 1619V324H761V0H84V1619Z"/>
    <path transform="translate(285.68 100.00) scale(0.02588 -0.02588)" d="M84 1619H399Q704 1619 811.5 1591.0Q919 1563 975.0 1499.0Q1031 1435 1045.0 1356.5Q1059 1278 1059 1048V481Q1059 263 1038.5 189.5Q1018 116 967.0 74.5Q916 33 841.0 16.5Q766 0 615 0H84ZM505 1342V277Q596 277 617.0 313.5Q638 350 638 512V1141Q638 1251 631.0 1282.0Q624 1313 599.0 1327.5Q574 1342 505 1342Z"/>
    <path transform="translate(314.98 100.00) scale(0.02588 -0.02588)" d="M84 1619H786V1295H505V988H768V680H505V324H814V0H84Z"/>
    <path transform="translate(337.00 100.00) scale(0.02588 -0.02588)" d="M84 1619H382Q680 1619 785.5 1596.0Q891 1573 957.5 1478.5Q1024 1384 1024 1177Q1024 988 977.0 923.0Q930 858 792 845Q917 814 960.0 762.0Q1003 710 1013.5 666.5Q1024 623 1024 427V0H633V538Q633 668 612.5 699.0Q592 730 505 730V0H84ZM505 1342V982Q576 982 604.5 1001.5Q633 1021 633 1128V1217Q633 1294 605.5 1318.0Q578 1342 505 1342Z"/>
  </g>
  <g fill="#454545">
    <path transform="translate(377.54 100.00) scale(0.02588 -0.02588)" d="M505 1619V324H761V0H84V1619Z"/>
    <path transform="translate(397.70 100.00) scale(0.02588 -0.02588)" d="M84 1619H786V1295H505V988H768V680H505V324H814V0H84Z"/>
    <path transform="translate(419.73 100.00) scale(0.02588 -0.02588)" d="M811 1619 1052 0H621L600 291H449L424 0H-12L202 1619ZM588 578Q556 853 524 1257Q460 793 444 578Z"/>
    <path transform="translate(446.64 100.00) scale(0.02588 -0.02588)" d="M84 1619H399Q704 1619 811.5 1591.0Q919 1563 975.0 1499.0Q1031 1435 1045.0 1356.5Q1059 1278 1059 1048V481Q1059 263 1038.5 189.5Q1018 116 967.0 74.5Q916 33 841.0 16.5Q766 0 615 0H84ZM505 1342V277Q596 277 617.0 313.5Q638 350 638 512V1141Q638 1251 631.0 1282.0Q624 1313 599.0 1327.5Q574 1342 505 1342Z"/>
  </g>
  <g fill="#28864b">
    <path transform="translate(193.00 150.00) scale(0.02441 -0.02441)" d="M1067 913H646V1195Q646 1318 632.5 1348.5Q619 1379 573 1379Q521 1379 507.0 1342.0Q493 1305 493 1182V430Q493 312 507.0 276.0Q521 240 570 240Q617 240 631.5 276.0Q646 312 646 445V648H1067V585Q1067 334 1031.5 229.0Q996 124 874.5 45.0Q753 -34 575 -34Q390 -34 270.0 33.0Q150 100 111.0 218.5Q72 337 72 575V1048Q72 1223 84.0 1310.5Q96 1398 155.5 1479.0Q215 1560 320.5 1606.5Q426 1653 563 1653Q749 1653 870.0 1581.0Q991 1509 1029.0 1401.5Q1067 1294 1067 1067Z"/>
    <path transform="translate(227.69 150.00) scale(0.02441 -0.02441)" d="M1046 671Q1046 427 1034.5 325.5Q1023 224 962.5 140.0Q902 56 799.0 11.0Q696 -34 559 -34Q429 -34 325.5 8.5Q222 51 159.0 136.0Q96 221 84.0 321.0Q72 421 72 671V948Q72 1192 83.5 1293.5Q95 1395 155.5 1479.0Q216 1563 319.0 1608.0Q422 1653 559 1653Q689 1653 792.5 1610.5Q896 1568 959.0 1483.0Q1022 1398 1034.0 1298.0Q1046 1198 1046 948ZM625 1203Q625 1316 612.5 1347.5Q600 1379 561 1379Q528 1379 510.5 1353.5Q493 1328 493 1203V447Q493 306 504.5 273.0Q516 240 558 240Q601 240 613.0 278.0Q625 316 625 459Z"/>
    <path transform="translate(262.00 150.00) scale(0.02441 -0.02441)" d="M1024 1619V0H655L436 736V0H84V1619H436L672 890V1619Z"/>
    <path transform="translate(296.08 150.00) scale(0.02441 -0.02441)" d="M1084 1619 870 0H231L-12 1619H432Q509 950 542 488Q575 955 611 1318L640 1619Z"/>
    <path transform="translate(329.25 150.00) scale(0.02441 -0.02441)" d="M84 1619H786V1295H505V988H768V680H505V324H814V0H84Z"/>
    <path transform="translate(357.03 150.00) scale(0.02441 -0.02441)" d="M84 1619H382Q680 1619 785.5 1596.0Q891 1573 957.5 1478.5Q1024 1384 1024 1177Q1024 988 977.0 923.0Q930 858 792 845Q917 814 960.0 762.0Q1003 710 1013.5 666.5Q1024 623 1024 427V0H633V538Q633 668 612.5 699.0Q592 730 505 730V0H84ZM505 1342V982Q576 982 604.5 1001.5Q633 1021 633 1128V1217Q633 1294 605.5 1318.0Q578 1342 505 1342Z"/>
    <path transform="translate(390.96 150.00) scale(0.02441 -0.02441)" d="M932 1619V1295H682V0H261V1295H12V1619Z"/>
    <path transform="translate(421.00 150.00) scale(0.02441 -0.02441)" d="M84 1619H786V1295H505V988H768V680H505V324H814V0H84Z"/>
    <path transform="translate(448.78 150.00) scale(0.02441 -0.02441)" d="M84 1619H382Q680 1619 785.5 1596.0Q891 1573 957.5 1478.5Q1024 1384 1024 1177Q1024 988 977.0 923.0Q930 858 792 845Q917 814 960.0 762.0Q1003 710 1013.5 666.5Q1024 623 1024 427V0H633V538Q633 668 612.5 699.0Q592 730 505 730V0H84ZM505 1342V982Q576 982 604.5 1001.5Q633 1021 633 1128V1217Q633 1294 605.5 1318.0Q578 1342 505 1342Z"/>
  </g>
  <g fill="#454545">
    <path transform="translate(22.00 181.00) scale(0.01123 -0.01123)" d="M438 0V617L-2 1466H282L565 886L843 1466H1122L680 615V0Z"/>
    <path transform="translate(39.28 181.00) scale(0.01123 -0.01123)" d="M74 724Q74 986 151.5 1155.5Q229 1325 354.0 1408.0Q479 1491 657 1491Q915 1491 1077.5 1294.0Q1240 1097 1240 733Q1240 365 1068 158Q917 -25 658 -25Q397 -25 246 156Q74 363 74 724ZM324 734Q324 481 420.0 354.5Q516 228 658 228Q801 228 895.0 353.5Q989 479 989 739Q989 994 897.5 1116.0Q806 1238 658 1238Q510 1238 417.0 1115.0Q324 992 324 734Z"/>
    <path transform="translate(58.66 181.00) scale(0.01123 -0.01123)" d="M120 1466H362V672Q362 487 371 431Q387 334 447.5 281.0Q508 228 607 228Q691 228 744.0 265.5Q797 303 816.5 369.5Q836 436 836 655V1466H1079V696Q1079 401 1047.5 269.5Q1016 138 905.5 56.5Q795 -25 614 -25Q426 -25 320.5 42.5Q215 110 167.5 232.5Q120 355 120 684Z"/>
    <path transform="translate(76.97 181.00) scale(0.01123 -0.01123)" d="M123 0V1466H634Q830 1466 914.0 1426.5Q998 1387 1052.0 1289.5Q1106 1192 1106 1056Q1106 884 1023.5 779.0Q941 674 789 647Q867 591 918.0 524.5Q969 458 1057 286L1203 0H914L738 319Q643 492 609.0 535.5Q575 579 537.0 595.5Q499 612 415 612H365V0ZM365 846H545Q710 846 755.0 860.5Q800 875 828.0 919.0Q856 963 856 1036Q856 1106 828.0 1148.5Q800 1191 752 1207Q718 1218 555 1218H365Z"/>
    <path transform="translate(105.22 181.00) scale(0.01123 -0.01123)" d="M122 0V1466H512Q730 1466 797 1445Q904 1411 973.5 1300.0Q1043 1189 1043 1014Q1043 855 983.0 747.5Q923 640 833.0 596.5Q743 553 523 553H364V0ZM364 1218V802H498Q633 802 681.5 821.0Q730 840 761.0 889.5Q792 939 792 1011Q792 1084 760.0 1134.0Q728 1184 681.0 1201.0Q634 1218 482 1218Z"/>
    <path transform="translate(122.50 181.00) scale(0.01123 -0.01123)" d="M123 0V1466H1015V1218H365V893H969V646H365V247H1037V0Z"/>
    <path transform="translate(139.78 181.00) scale(0.01123 -0.01123)" d="M123 0V1466H634Q830 1466 914.0 1426.5Q998 1387 1052.0 1289.5Q1106 1192 1106 1056Q1106 884 1023.5 779.0Q941 674 789 647Q867 591 918.0 524.5Q969 458 1057 286L1203 0H914L738 319Q643 492 609.0 535.5Q575 579 537.0 595.5Q499 612 415 612H365V0ZM365 846H545Q710 846 755.0 860.5Q800 875 828.0 919.0Q856 963 856 1036Q856 1106 828.0 1148.5Q800 1191 752 1207Q718 1218 555 1218H365Z"/>
    <path transform="translate(158.09 181.00) scale(0.01123 -0.01123)" d="M124 0V1466H948V1218H366V871H869V623H366V0Z"/>
    <path transform="translate(174.31 181.00) scale(0.01123 -0.01123)" d="M123 0V1466H1015V1218H365V893H969V646H365V247H1037V0Z"/>
    <path transform="translate(191.59 181.00) scale(0.01123 -0.01123)" d="M892 539 1127 448Q1072 202 944.0 88.5Q816 -25 629 -25Q394 -25 248 156Q80 365 80 720Q80 1095 249 1307Q396 1491 644 1491Q846 1491 982 1353Q1079 1255 1124 1062L884 992Q861 1111 792.5 1174.5Q724 1238 631 1238Q498 1238 414.0 1122.0Q330 1006 330 739Q330 462 412.0 345.0Q494 228 625 228Q721 228 791.0 302.5Q861 377 892 539Z"/>
    <path transform="translate(209.90 181.00) scale(0.01123 -0.01123)" d="M393 0V1218H36V1466H991V1218H635V0Z"/>
    <path transform="translate(236.07 181.00) scale(0.01123 -0.01123)" d="M61 477 298 505Q338 224 560 224Q670 224 733.0 281.5Q796 339 796 424Q796 474 774.0 509.0Q752 544 707.0 566.5Q662 589 489 642Q334 689 262.0 744.0Q190 799 147.5 888.5Q105 978 105 1081Q105 1201 159.5 1297.0Q214 1393 310.0 1442.0Q406 1491 547 1491Q759 1491 878.0 1376.0Q997 1261 1004 1047L761 1034Q745 1152 692.0 1199.0Q639 1246 541 1246Q443 1246 390.0 1205.0Q337 1164 337 1103Q337 1043 385 1002Q433 961 606 912Q789 859 870.5 800.5Q952 742 995.0 649.5Q1038 557 1038 425Q1038 234 920.5 104.0Q803 -26 553 -26Q111 -26 61 477Z"/>
    <path transform="translate(253.35 181.00) scale(0.01123 -0.01123)" d="M1206 0H942L837 333H357L258 0H0L468 1466H725ZM759 580 594 1124 431 580Z"/>
    <path transform="translate(271.66 181.00) scale(0.01123 -0.01123)" d="M129 0V1454H371V247H975V0Z"/>
    <path transform="translate(287.88 181.00) scale(0.01123 -0.01123)" d="M123 0V1466H1015V1218H365V893H969V646H365V247H1037V0Z"/>
    <path transform="translate(305.16 181.00) scale(0.01123 -0.01123)" d="M61 477 298 505Q338 224 560 224Q670 224 733.0 281.5Q796 339 796 424Q796 474 774.0 509.0Q752 544 707.0 566.5Q662 589 489 642Q334 689 262.0 744.0Q190 799 147.5 888.5Q105 978 105 1081Q105 1201 159.5 1297.0Q214 1393 310.0 1442.0Q406 1491 547 1491Q759 1491 878.0 1376.0Q997 1261 1004 1047L761 1034Q745 1152 692.0 1199.0Q639 1246 541 1246Q443 1246 390.0 1205.0Q337 1164 337 1103Q337 1043 385 1002Q433 961 606 912Q789 859 870.5 800.5Q952 742 995.0 649.5Q1038 557 1038 425Q1038 234 920.5 104.0Q803 -26 553 -26Q111 -26 61 477Z"/>
    <path transform="translate(332.38 181.00) scale(0.01123 -0.01123)" d="M1206 0H942L837 333H357L258 0H0L468 1466H725ZM759 580 594 1124 431 580Z"/>
    <path transform="translate(350.69 181.00) scale(0.01123 -0.01123)" d="M61 477 298 505Q338 224 560 224Q670 224 733.0 281.5Q796 339 796 424Q796 474 774.0 509.0Q752 544 707.0 566.5Q662 589 489 642Q334 689 262.0 744.0Q190 799 147.5 888.5Q105 978 105 1081Q105 1201 159.5 1297.0Q214 1393 310.0 1442.0Q406 1491 547 1491Q759 1491 878.0 1376.0Q997 1261 1004 1047L761 1034Q745 1152 692.0 1199.0Q639 1246 541 1246Q443 1246 390.0 1205.0Q337 1164 337 1103Q337 1043 385 1002Q433 961 606 912Q789 859 870.5 800.5Q952 742 995.0 649.5Q1038 557 1038 425Q1038 234 920.5 104.0Q803 -26 553 -26Q111 -26 61 477Z"/>
    <path transform="translate(367.97 181.00) scale(0.01123 -0.01123)" d="M61 477 298 505Q338 224 560 224Q670 224 733.0 281.5Q796 339 796 424Q796 474 774.0 509.0Q752 544 707.0 566.5Q662 589 489 642Q334 689 262.0 744.0Q190 799 147.5 888.5Q105 978 105 1081Q105 1201 159.5 1297.0Q214 1393 310.0 1442.0Q406 1491 547 1491Q759 1491 878.0 1376.0Q997 1261 1004 1047L761 1034Q745 1152 692.0 1199.0Q639 1246 541 1246Q443 1246 390.0 1205.0Q337 1164 337 1103Q337 1043 385 1002Q433 961 606 912Q789 859 870.5 800.5Q952 742 995.0 649.5Q1038 557 1038 425Q1038 234 920.5 104.0Q803 -26 553 -26Q111 -26 61 477Z"/>
    <path transform="translate(385.25 181.00) scale(0.01123 -0.01123)" d="M115 0V1466H357V0Z"/>
    <path transform="translate(395.20 181.00) scale(0.01123 -0.01123)" d="M61 477 298 505Q338 224 560 224Q670 224 733.0 281.5Q796 339 796 424Q796 474 774.0 509.0Q752 544 707.0 566.5Q662 589 489 642Q334 689 262.0 744.0Q190 799 147.5 888.5Q105 978 105 1081Q105 1201 159.5 1297.0Q214 1393 310.0 1442.0Q406 1491 547 1491Q759 1491 878.0 1376.0Q997 1261 1004 1047L761 1034Q745 1152 692.0 1199.0Q639 1246 541 1246Q443 1246 390.0 1205.0Q337 1164 337 1103Q337 1043 385 1002Q433 961 606 912Q789 859 870.5 800.5Q952 742 995.0 649.5Q1038 557 1038 425Q1038 234 920.5 104.0Q803 -26 553 -26Q111 -26 61 477Z"/>
    <path transform="translate(412.47 181.00) scale(0.01123 -0.01123)" d="M393 0V1218H36V1466H991V1218H635V0Z"/>
    <path transform="translate(428.70 181.00) scale(0.01123 -0.01123)" d="M1206 0H942L837 333H357L258 0H0L468 1466H725ZM759 580 594 1124 431 580Z"/>
    <path transform="translate(447.01 181.00) scale(0.01123 -0.01123)" d="M125 0V1466H361L853 487V1466H1079V0H835L351 956V0Z"/>
    <path transform="translate(465.32 181.00) scale(0.01123 -0.01123)" d="M393 0V1218H36V1466H991V1218H635V0Z"/>
  </g>
</svg>
